<svg width="144" height="67" viewBox="0 0 144 67" fill="none" xmlns="http://www.w3.org/2000/svg">
<path d="M19.0564 8.26074L22.4251 15.3725L20.9279 19.1155L22.4251 31.9166L23.7726 33.5636L22.8743 35.6597V44.3435L24.2966 46.9636L24.6709 51.8295L28.6385 54.3748V55.9468H19.0564L19.0564 8.26074Z" fill="#D19B6A"/>
<path d="M23.6423 33.4814L19.0621 32.1035V55.867H28.5103V54.3027L24.5407 51.757L24.1677 46.8878L22.7437 44.27V35.5831L23.6423 33.4814Z" fill="#FFC28B"/>
<path d="M23.6357 33.4909L22.3024 31.8564L19.0621 30.7793V32.11L23.6357 33.4909Z" fill="#FFDAB9"/>
<path d="M20.9542 19.1118L19.092 18.2044V13.6016L22.4683 15.36L20.9542 19.1118Z" fill="#A37F5F"/>
<path d="M19.092 8.26074L15.7233 15.3725L17.2205 19.1155L15.7233 31.9166L14.3758 33.5636L15.2742 35.6597V44.3435L13.8518 46.9636L13.4775 51.8295L9.50989 54.3748V55.9468H19.092L19.092 8.26074Z" fill="#B58E6B"/>
<path d="M14.5253 33.4814L19.1055 32.1035V55.867H9.65732V54.3027L13.6269 51.757L13.9999 46.8878L15.4239 44.27V35.5831L14.5253 33.4814Z" fill="#D1A074"/>
<path d="M14.5318 33.4909L15.8651 31.8564L19.1053 30.7793V32.11L14.5318 33.4909Z" fill="#BEA58F"/>
<path d="M17.2299 19.1118L19.092 18.2044V13.6016L15.7158 15.36L17.2299 19.1118Z" fill="#706153"/>
<path d="M41.978 21.364L37.496 34H33.644L29.162 21.364H32.438L35.57 30.904L38.72 21.364H41.978ZM44.8124 22.912C44.2724 22.912 43.8284 22.756 43.4804 22.444C43.1444 22.12 42.9764 21.724 42.9764 21.256C42.9764 20.776 43.1444 20.38 43.4804 20.068C43.8284 19.744 44.2724 19.582 44.8124 19.582C45.3404 19.582 45.7724 19.744 46.1084 20.068C46.4564 20.38 46.6304 20.776 46.6304 21.256C46.6304 21.724 46.4564 22.12 46.1084 22.444C45.7724 22.756 45.3404 22.912 44.8124 22.912ZM46.3424 23.956V34H43.2644V23.956H46.3424ZM52.659 34.144C51.783 34.144 51.003 33.994 50.319 33.694C49.635 33.394 49.095 32.986 48.699 32.47C48.303 31.942 48.081 31.354 48.033 30.706H51.075C51.111 31.054 51.273 31.336 51.561 31.552C51.849 31.768 52.203 31.876 52.623 31.876C53.007 31.876 53.301 31.804 53.505 31.66C53.721 31.504 53.829 31.306 53.829 31.066C53.829 30.778 53.679 30.568 53.379 30.436C53.079 30.292 52.593 30.136 51.921 29.968C51.201 29.8 50.601 29.626 50.121 29.446C49.641 29.254 49.227 28.96 48.879 28.564C48.531 28.156 48.357 27.61 48.357 26.926C48.357 26.35 48.513 25.828 48.825 25.36C49.149 24.88 49.617 24.502 50.229 24.226C50.853 23.95 51.591 23.812 52.443 23.812C53.703 23.812 54.693 24.124 55.413 24.748C56.145 25.372 56.565 26.2 56.673 27.232H53.829C53.781 26.884 53.625 26.608 53.361 26.404C53.109 26.2 52.773 26.098 52.353 26.098C51.993 26.098 51.717 26.17 51.525 26.314C51.333 26.446 51.237 26.632 51.237 26.872C51.237 27.16 51.387 27.376 51.687 27.52C51.999 27.664 52.479 27.808 53.127 27.952C53.871 28.144 54.477 28.336 54.945 28.528C55.413 28.708 55.821 29.008 56.169 29.428C56.529 29.836 56.715 30.388 56.727 31.084C56.727 31.672 56.559 32.2 56.223 32.668C55.899 33.124 55.425 33.484 54.801 33.748C54.189 34.012 53.475 34.144 52.659 34.144ZM60.1581 22.912C59.6181 22.912 59.1741 22.756 58.8261 22.444C58.4901 22.12 58.3221 21.724 58.3221 21.256C58.3221 20.776 58.4901 20.38 58.8261 20.068C59.1741 19.744 59.6181 19.582 60.1581 19.582C60.6861 19.582 61.1181 19.744 61.4541 20.068C61.8021 20.38 61.9761 20.776 61.9761 21.256C61.9761 21.724 61.8021 22.12 61.4541 22.444C61.1181 22.756 60.6861 22.912 60.1581 22.912ZM61.6881 23.956V34H58.6101V23.956H61.6881ZM69.5167 31.39V34H67.9507C66.8347 34 65.9647 33.73 65.3407 33.19C64.7167 32.638 64.4047 31.744 64.4047 30.508V26.512H63.1807V23.956H64.4047V21.508H67.4827V23.956H69.4987V26.512H67.4827V30.544C67.4827 30.844 67.5547 31.06 67.6987 31.192C67.8427 31.324 68.0827 31.39 68.4187 31.39H69.5167ZM40.952 34.364L36.578 42.824V47H33.5V42.824L29.126 34.364H32.618L35.066 39.656L37.496 34.364H40.952ZM46.7642 47.144C45.7802 47.144 44.8922 46.934 44.1002 46.514C43.3202 46.094 42.7022 45.494 42.2462 44.714C41.8022 43.934 41.5802 43.022 41.5802 41.978C41.5802 40.946 41.8082 40.04 42.2642 39.26C42.7202 38.468 43.3442 37.862 44.1362 37.442C44.9282 37.022 45.8162 36.812 46.8002 36.812C47.7842 36.812 48.6722 37.022 49.4642 37.442C50.2562 37.862 50.8802 38.468 51.3362 39.26C51.7922 40.04 52.0202 40.946 52.0202 41.978C52.0202 43.01 51.7862 43.922 51.3182 44.714C50.8622 45.494 50.2322 46.094 49.4282 46.514C48.6362 46.934 47.7482 47.144 46.7642 47.144ZM46.7642 44.48C47.3522 44.48 47.8502 44.264 48.2582 43.832C48.6782 43.4 48.8882 42.782 48.8882 41.978C48.8882 41.174 48.6842 40.556 48.2762 40.124C47.8802 39.692 47.3882 39.476 46.8002 39.476C46.2002 39.476 45.7022 39.692 45.3062 40.124C44.9102 40.544 44.7122 41.162 44.7122 41.978C44.7122 42.782 44.9042 43.4 45.2882 43.832C45.6842 44.264 46.1762 44.48 46.7642 44.48ZM57.4691 36.812C58.1771 36.812 58.7951 36.956 59.3231 37.244C59.8631 37.532 60.2771 37.91 60.5651 38.378V36.956H63.6431V46.982C63.6431 47.906 63.4571 48.74 63.0851 49.484C62.7251 50.24 62.1671 50.84 61.4111 51.284C60.6671 51.728 59.7371 51.95 58.6211 51.95C57.1331 51.95 55.9271 51.596 55.0031 50.888C54.0791 50.192 53.5511 49.244 53.4191 48.044H56.4611C56.5571 48.428 56.7851 48.728 57.1451 48.944C57.5051 49.172 57.9491 49.286 58.4771 49.286C59.1131 49.286 59.6171 49.1 59.9891 48.728C60.3731 48.368 60.5651 47.786 60.5651 46.982V45.56C60.2651 46.028 59.8511 46.412 59.3231 46.712C58.7951 47 58.1771 47.144 57.4691 47.144C56.6411 47.144 55.8911 46.934 55.2191 46.514C54.5471 46.082 54.0131 45.476 53.6171 44.696C53.2331 43.904 53.0411 42.992 53.0411 41.96C53.0411 40.928 53.2331 40.022 53.6171 39.242C54.0131 38.462 54.5471 37.862 55.2191 37.442C55.8911 37.022 56.6411 36.812 57.4691 36.812ZM60.5651 41.978C60.5651 41.21 60.3491 40.604 59.9171 40.16C59.4971 39.716 58.9811 39.494 58.3691 39.494C57.7571 39.494 57.2351 39.716 56.8031 40.16C56.3831 40.592 56.1731 41.192 56.1731 41.96C56.1731 42.728 56.3831 43.34 56.8031 43.796C57.2351 44.24 57.7571 44.462 58.3691 44.462C58.9811 44.462 59.4971 44.24 59.9171 43.796C60.3491 43.352 60.5651 42.746 60.5651 41.978ZM76.1299 36.956L69.8299 51.77H66.5179L68.8219 46.658L64.7359 36.956H68.1739L70.4959 43.238L72.7999 36.956H76.1299ZM76.631 41.96C76.631 40.928 76.823 40.022 77.207 39.242C77.603 38.462 78.137 37.862 78.809 37.442C79.481 37.022 80.231 36.812 81.059 36.812C81.767 36.812 82.385 36.956 82.913 37.244C83.453 37.532 83.867 37.91 84.155 38.378V36.956H87.233V47H84.155V45.578C83.855 46.046 83.435 46.424 82.895 46.712C82.367 47 81.749 47.144 81.041 47.144C80.225 47.144 79.481 46.934 78.809 46.514C78.137 46.082 77.603 45.476 77.207 44.696C76.823 43.904 76.631 42.992 76.631 41.96ZM84.155 41.978C84.155 41.21 83.939 40.604 83.507 40.16C83.087 39.716 82.571 39.494 81.959 39.494C81.347 39.494 80.825 39.716 80.393 40.16C79.973 40.592 79.763 41.192 79.763 41.96C79.763 42.728 79.973 43.34 80.393 43.796C80.825 44.24 81.347 44.462 81.959 44.462C82.571 44.462 83.087 44.24 83.507 43.796C83.939 43.352 84.155 42.746 84.155 41.978ZM95.5978 47L92.5378 42.788V47H89.4598V33.68H92.5378V41.042L95.5798 36.956H99.3778L95.2018 41.996L99.4138 47H95.5978ZM99.9747 41.96C99.9747 40.928 100.167 40.022 100.551 39.242C100.947 38.462 101.481 37.862 102.153 37.442C102.825 37.022 103.575 36.812 104.403 36.812C105.111 36.812 105.729 36.956 106.257 37.244C106.797 37.532 107.211 37.91 107.499 38.378V36.956H110.577V47H107.499V45.578C107.199 46.046 106.779 46.424 106.239 46.712C105.711 47 105.093 47.144 104.385 47.144C103.569 47.144 102.825 46.934 102.153 46.514C101.481 46.082 100.947 45.476 100.551 44.696C100.167 43.904 99.9747 42.992 99.9747 41.96ZM107.499 41.978C107.499 41.21 107.283 40.604 106.851 40.16C106.431 39.716 105.915 39.494 105.303 39.494C104.691 39.494 104.169 39.716 103.737 40.16C103.317 40.592 103.107 41.192 103.107 41.96C103.107 42.728 103.317 43.34 103.737 43.796C104.169 44.24 104.691 44.462 105.303 44.462C105.915 44.462 106.431 44.24 106.851 43.796C107.283 43.352 107.499 42.746 107.499 41.978ZM115.882 38.63C116.242 38.078 116.692 37.646 117.232 37.334C117.772 37.01 118.372 36.848 119.032 36.848V40.106H118.186C117.418 40.106 116.842 40.274 116.458 40.61C116.074 40.934 115.882 41.51 115.882 42.338V47H112.804V36.956H115.882V38.63ZM126.101 44.39V47H124.535C123.419 47 122.549 46.73 121.925 46.19C121.301 45.638 120.989 44.744 120.989 43.508V39.512H119.765V36.956H120.989V34.508H124.067V36.956H126.083V39.512H124.067V43.544C124.067 43.844 124.139 44.06 124.283 44.192C124.427 44.324 124.667 44.39 125.003 44.39H126.101ZM127.203 41.96C127.203 40.928 127.395 40.022 127.779 39.242C128.175 38.462 128.709 37.862 129.381 37.442C130.053 37.022 130.803 36.812 131.631 36.812C132.339 36.812 132.957 36.956 133.485 37.244C134.025 37.532 134.439 37.91 134.727 38.378V36.956H137.805V47H134.727V45.578C134.427 46.046 134.007 46.424 133.467 46.712C132.939 47 132.321 47.144 131.613 47.144C130.797 47.144 130.053 46.934 129.381 46.514C128.709 46.082 128.175 45.476 127.779 44.696C127.395 43.904 127.203 42.992 127.203 41.96ZM134.727 41.978C134.727 41.21 134.511 40.604 134.079 40.16C133.659 39.716 133.143 39.494 132.531 39.494C131.919 39.494 131.397 39.716 130.965 40.16C130.545 40.592 130.335 41.192 130.335 41.96C130.335 42.728 130.545 43.34 130.965 43.796C131.397 44.24 131.919 44.462 132.531 44.462C133.143 44.462 133.659 44.24 134.079 43.796C134.511 43.352 134.727 42.746 134.727 41.978Z" fill="#17111D"/>
</svg>
